<svg xmlns="http://www.w3.org/2000/svg" viewBox="0 0 140 48" width="140" height="48">
  <!-- PACT Logo - Text as paths for maximum compatibility -->
  <!-- Colors: Primary #18181B, Accent #C9705F -->

  <!-- P -->
  <path d="M4 40V8h12.5c3.2 0 5.7.9 7.5 2.7 1.8 1.8 2.7 4.1 2.7 6.9 0 2.8-.9 5.1-2.7 6.9-1.8 1.8-4.3 2.7-7.5 2.7H10v13H4zm6-18.5h6c1.6 0 2.8-.4 3.6-1.3.8-.9 1.2-2 1.2-3.5s-.4-2.6-1.2-3.5c-.8-.9-2-1.3-3.6-1.3h-6v9.6z" fill="#18181B"/>

  <!-- A (Accent color) -->
  <path d="M45.5 40l-2.8-7.5h-14L26 40h-6.5L33.5 8h8.5l14 32h-6.5l-4-10zm-4.8-13L36.5 16l-4.2 11h8.4z" fill="#C9705F"/>

  <!-- C -->
  <path d="M82 32.5c-1.2 2.5-3 4.5-5.3 6-2.3 1.5-5 2.2-8.2 2.2-4.5 0-8.2-1.5-11-4.5-2.8-3-4.2-6.8-4.2-11.5 0-4.7 1.4-8.5 4.2-11.5 2.8-3 6.5-4.5 11-4.5 3.2 0 5.9.7 8.2 2.2 2.3 1.5 4.1 3.5 5.3 6l-5.5 3c-.7-1.5-1.8-2.7-3.2-3.5-1.4-.8-3-.2-4.8-1.2-2.5 0-4.5.9-6 2.8-1.5 1.9-2.2 4.3-2.2 7.2 0 2.9.7 5.3 2.2 7.2 1.5 1.9 3.5 2.8 6 2.8 1.8 0 3.4-.4 4.8-1.2 1.4-.8 2.5-2 3.2-3.5l5.5 3z" fill="#18181B"/>

  <!-- T -->
  <path d="M90 14v-6h28v6h-11v26h-6V14H90z" fill="#18181B"/>
</svg>
